####
#
# OBJ File Generated by Meshlab
#
####
# Object laptop.obj
#
# Vertices: 300
# Faces: 161
#
####
mtllib ./laptop.obj.mtl

vn 0.9779122 -0.0453856 0.2040293
v 0.3493456 -0.2644734 0.4719518
vn -0.0001938 -0.0000444 -1.0000000
v 0.3398955 -0.3180944 0.3617365
vn 0.9916709 -0.1276594 0.0170840
v 0.3497061 -0.2817514 0.4597730
vn 0.9885635 0.1493520 0.0208859
v 0.3481227 0.3291835 0.4391571
vn 0.9694805 0.0665236 0.2359708
v 0.3481820 0.2998459 0.4734365
vn 0.9992030 -0.0068662 0.0393231
v 0.3493749 -0.2789558 0.4686777
vn 0.9585202 0.0775637 0.2742678
v 0.3384217 0.3259693 0.4983866
vn -0.9999980 0.0019820 -0.0003743
v 0.3301101 0.3234329 0.4965352
vn -0.9676270 -0.2523843 -0.0003589
v 0.3328422 -0.3151948 0.3617378
vn -0.1653486 0.9770238 0.1344781
v 0.3385886 0.3580130 0.4626200
vn 0.9728876 -0.0707694 0.2201851
v 0.3412390 -0.2991058 0.4971650
vn 0.9703836 0.1618317 0.1793495
v 0.3481377 0.3218491 0.4648716
vn 0.0000242 -0.0000545 1.0000000
v 0.3289469 -0.3151738 0.4283952
vn 0.0000244 -0.0000538 1.0000000
v 0.3331801 -0.3232418 0.4283943
vn -0.1560797 0.0557261 -0.9861713
v 0.3304740 0.3197783 -0.4969523
vn 0.9709372 -0.2393346 -0.0000016
v 0.3413102 -0.3158121 -0.3625677
vn 0.9829012 -0.0691026 -0.1706758
v 0.3490672 -0.2649751 -0.4704998
vn 0.9966410 -0.0790192 -0.0215110
v 0.3497061 -0.2817514 -0.4563046
vn 0.9730055 0.0197871 -0.2299320
v 0.3481817 0.2998459 -0.4699681
vn 0.9808751 -0.1452178 -0.1295989
v 0.3488325 -0.2797240 -0.4688036
vn 0.9772760 0.2115807 -0.0128552
v 0.3481227 0.3291835 -0.4356887
vn -0.9873054 -0.1573400 0.0217308
v 0.3323566 -0.3152083 -0.4754347
vn -0.1742889 0.9772853 -0.1205691
v 0.3305349 0.3570498 -0.4621689
vn 0.9541366 0.2991465 -0.0116113
v 0.3385886 0.3578804 -0.4634511
vn 0.9709142 -0.2394278 -0.0000363
v 0.3413078 -0.3158121 -0.4292269
vn 0.9764922 0.1161063 -0.1816107
v 0.3481374 0.3218491 -0.4614032
vn 0.0000324 -0.0000354 -1.0000000
v 0.3323404 -0.3152071 -0.4292260
vn 0.0000321 -0.0000364 -1.0000000
v 0.3338475 -0.3232418 -0.4292254
vn -0.9999980 0.0019817 -0.0003757
v 0.3301783 0.3537260 0.4748681
vn -0.9999980 0.0019817 -0.0003756
v 0.3301606 0.3472538 0.4879847
vn 0.9708947 0.1799284 0.1580800
v 0.3425771 0.3421045 0.4777254
vn -0.3021737 0.8622307 -0.4065087
v 0.3305306 0.3518094 -0.4790650
vn -0.2303118 0.2380257 -0.9435573
v 0.3304924 0.3293412 -0.4952903
vn -0.3021738 0.8622307 -0.4065088
v 0.3379136 0.3543649 -0.4803475
vn 0.9767532 0.1609840 -0.1415533
v 0.3447643 0.3379366 -0.4731289
vn -0.9889989 -0.1448369 0.0300587
v 0.3302550 -0.3050065 -0.4954239
vn -0.1543875 -0.4432641 0.8829958
v 0.3292729 -0.3052256 0.4926429
vn -0.1522984 -0.5121601 0.8452794
v 0.3416087 -0.3058633 0.4944815
vn -0.0001008 -0.0001657 1.0000000
v 0.3398955 -0.3180944 0.4283957
vn 0.8499934 -0.5267934 0.0000076
v 0.3413105 -0.3158121 0.3617365
vn 0.8500954 -0.5266287 0.0000168
v 0.3413081 -0.3158121 0.4283957
vn -0.0855294 -0.9821439 0.1675653
v 0.3415892 -0.3152786 0.4805543
vn -0.9676270 -0.2523843 -0.0003589
v 0.3331169 -0.3152099 -0.3625665
vn -0.9980233 -0.0481251 0.0404159
v 0.3290804 -0.3152010 0.4786036
vn 0.0000339 -0.0003370 0.9999999
v 0.3398952 -0.3180944 -0.3625677
vn -0.9990541 -0.0335838 0.0276230
v 0.3288784 -0.2984660 0.4953258
vn 0.9999951 0.0031151 0.0003712
v 0.3289249 -0.3001679 0.3617426
vn -0.9668141 -0.2554809 0.0000199
v 0.3029179 -0.3085559 0.3617365
vn -0.9668141 -0.2554809 0.0000199
v 0.3029231 -0.3085559 0.4283957
vn 0.9999951 0.0031151 0.0003712
v 0.3289001 -0.3001664 0.4284016
vn 0.0000434 -0.0000144 -1.0000000
v 0.3331801 -0.3232418 0.3617380
vn -0.9668141 -0.2554809 0.0000199
v 0.3045648 -0.3147741 0.3617365
vn -0.9668141 -0.2554809 0.0000199
v 0.3045624 -0.3147741 0.4283957
vn -0.1260860 -0.1079194 -0.9861317
v 0.3292488 -0.2984864 -0.4968215
vn 0.9798468 -0.1870648 -0.0700515
v 0.3413059 -0.3158121 -0.4767315
vn -0.0001616 -0.0001074 -1.0000000
v 0.3398952 -0.3180944 -0.4292269
vn -0.3034750 0.9528394 -0.0000776
v 0.3291953 -0.3001829 -0.3625616
vn -0.9668141 -0.2554809 -0.0000199
v 0.3029179 -0.3085559 -0.3625677
vn -0.1834464 0.1118176 -0.9766495
v 0.3384214 0.3223352 -0.4982350
vn 0.9781603 -0.1065786 -0.1784477
v 0.3412387 -0.2991058 -0.4981168
vn -0.9668141 -0.2554809 -0.0000199
v 0.3029231 -0.3085559 -0.4292269
vn 0.0001193 0.0003909 -0.9999999
v 0.3292204 -0.3001841 -0.4292205
vn -0.2777806 -0.9606445 0.0000051
v 0.3338475 -0.3232418 -0.3625692
vn -0.9668141 -0.2554809 -0.0000199
v 0.3045648 -0.3147741 -0.3625677
vn -0.9668141 -0.2554809 -0.0000199
v 0.3045624 -0.3147741 -0.4292269
vn -0.9999980 0.0019824 -0.0003746
v 0.3301899 0.3572017 0.4626062
vn 0.9627069 0.2659853 0.0494695
v 0.3381177 0.3562621 0.4748818
vn 0.9407997 0.2565471 0.2215392
v 0.3380624 0.3497894 0.4879984
vn -0.1667132 0.3557220 0.9196025
v 0.3383744 0.3380115 0.4949265
vn -0.9999980 0.0019817 -0.0003756
v 0.3301346 0.3354750 0.4949130
vn -0.2494143 0.3078268 -0.9181695
v 0.3383890 0.3318982 -0.4965734
vn 0.9475906 0.1999936 -0.2491478
v 0.3383450 0.3472245 -0.4900879
vn -0.9999980 0.0019683 -0.0003644
v 0.3305202 0.3446679 -0.4888054
vn 0.9810534 -0.1639138 -0.1032793
v 0.3410832 -0.3119590 -0.4900591
vn -0.0635223 -0.9617544 -0.2664458
v 0.3410334 -0.3154250 -0.4826533
vn 0.9786853 -0.1172560 -0.1686009
v 0.3409197 -0.3056210 -0.4967198
vn -0.9890009 -0.1448222 0.0300621
v 0.3319145 -0.3148178 -0.4813586
vn -0.9890009 -0.1448222 0.0300621
v 0.3314840 -0.3122031 -0.4893784
vn 0.9806002 -0.1150807 0.1586809
v 0.3418012 -0.3120134 0.4900894
vn 0.9801491 -0.1932101 0.0444692
v 0.3416323 -0.3146103 0.4844341
vn -0.9949948 -0.0745218 0.0665719
v 0.3294394 -0.3113766 0.4882511
vn -0.9949955 -0.0745167 0.0665683
v 0.3292558 -0.3139727 0.4825958
vn 0.9826798 -0.1467260 0.1131900
v 0.3493749 -0.2789558 0.4686777
vn 0.5537493 -0.8326834 -0.0000203
v 0.3398955 -0.3180944 0.3617365
vn 0.6083628 -0.7936592 0.0000000
v 0.3398955 -0.3180944 0.3617365
vn -0.3857989 -0.9225829 -0.0000635
v 0.3328422 -0.3151948 0.3617378
vn 0.0000437 -0.0000135 -1.0000000
v 0.3328422 -0.3151948 0.3617378
vn -0.1741737 0.1011106 0.9795102
v 0.3384217 0.3259693 0.4983866
vn -0.1648215 -0.2527886 0.9533792
v 0.3412390 -0.2991058 0.4971650
vn -0.1741737 0.1011106 0.9795102
v 0.3301101 0.3234329 0.4965352
vn -0.1716090 -0.1274829 0.9768820
v 0.3288784 -0.2984660 0.4953258
vn 0.8500278 -0.5267379 -0.0000105
v 0.3413102 -0.3158121 -0.3625677
vn 0.8500962 -0.5266275 -0.0000156
v 0.3413078 -0.3158121 -0.4292269
vn -0.2089024 -0.9775644 -0.0269753
v 0.3323404 -0.3152071 -0.4292260
vn -0.9808677 -0.1946480 -0.0032860
v 0.3323404 -0.3152071 -0.4292260
vn -0.1647630 -0.9855882 -0.0383288
v 0.3323566 -0.3152083 -0.4754347
vn 0.6481575 -0.7615064 0.0000000
v 0.3338475 -0.3232418 -0.4292254
vn -0.2777806 -0.9606445 0.0000051
v 0.3338475 -0.3232418 -0.4292254
vn 0.6481575 -0.7615064 0.0000000
v 0.3398952 -0.3180944 -0.4292269
vn 0.3922984 -0.9196901 -0.0164988
v 0.3398952 -0.3180944 -0.4292269
vn 0.6481575 -0.7615064 0.0000000
v 0.3398952 -0.3180944 -0.3625677
vn 0.4607230 -0.8875440 -0.0000371
v 0.3398952 -0.3180944 -0.3625677
vn -0.0000454 -0.0002000 1.0000000
v 0.3331169 -0.3152099 -0.3625665
vn -0.3857989 -0.9225829 -0.0000635
v 0.3331169 -0.3152099 -0.3625665
vn -0.0001187 -0.0003582 0.9999999
v 0.3291953 -0.3001829 -0.3625616
vn -0.9973758 -0.0723981 -0.0003721
v 0.3291953 -0.3001829 -0.3625616
vn -0.2252054 0.9340023 0.2773487
v 0.3301783 0.3537260 0.4748681
vn -0.2464085 0.7697014 0.5889334
v 0.3301606 0.3472538 0.4879847
vn -0.1326138 0.9888903 0.0671528
v 0.3301899 0.3572017 0.4626062
vn -0.9999980 0.0019683 -0.0003644
v 0.3305306 0.3518094 -0.4790650
vn -0.9999980 0.0019782 -0.0003704
v 0.3305349 0.3570498 -0.4621689
vn -0.9999980 0.0019683 -0.0003644
v 0.3304924 0.3293412 -0.4952903
vn -0.9999980 0.0019750 -0.0003688
v 0.3304740 0.3197783 -0.4969523
vn -0.1260861 -0.1079194 -0.9861317
v 0.3412387 -0.2991058 -0.4981168
vn -0.1066318 -0.4674114 -0.8775855
v 0.3409197 -0.3056210 -0.4967198
vn 0.9711802 -0.2383435 -0.0012076
v 0.3413081 -0.3158121 0.4283957
vn 0.9800868 -0.1936084 0.0441091
v 0.3415892 -0.3152786 0.4805543
vn -0.2837425 -0.9589005 -0.0000052
v 0.3331801 -0.3232418 0.3617380
vn 0.6083628 -0.7936592 0.0000000
v 0.3331801 -0.3232418 0.3617380
vn -0.2837425 -0.9589005 -0.0000052
v 0.3045648 -0.3147741 0.3617365
vn 0.0000436 -0.0000144 -1.0000000
v 0.3045648 -0.3147741 0.3617365
vn -0.3071429 0.9516634 -0.0000560
v 0.3029179 -0.3085559 0.3617365
vn 0.0000439 -0.0000127 -1.0000000
v 0.3029179 -0.3085559 0.3617365
vn -0.3071429 0.9516634 -0.0000560
v 0.3029231 -0.3085559 0.4283957
vn 0.0000241 -0.0000552 1.0000000
v 0.3029231 -0.3085559 0.4283957
vn -0.9878887 -0.1550161 0.0067783
v 0.3292488 -0.2984864 -0.4968215
vn -0.1197639 -0.9915619 -0.0496148
v 0.3413059 -0.3158121 -0.4767315
vn 0.0000326 -0.0000344 -1.0000000
v 0.3029231 -0.3085559 -0.4292269
vn -0.3034750 0.9528394 -0.0000776
v 0.3029231 -0.3085559 -0.4292269
vn 0.0000322 -0.0000363 -1.0000000
v 0.3045624 -0.3147741 -0.4292269
vn -0.2777806 -0.9606445 0.0000051
v 0.3045624 -0.3147741 -0.4292269
vn -0.3034750 0.9528394 -0.0000776
v 0.3029179 -0.3085559 -0.3625677
vn -0.0000453 -0.0001996 1.0000000
v 0.3029179 -0.3085559 -0.3625677
vn -0.2519942 0.9012238 0.3525545
v 0.3381177 0.3562621 0.4748818
vn -0.2054053 0.6440777 0.7368667
v 0.3380624 0.3497894 0.4879984
vn 0.9604110 0.0902760 0.2635546
v 0.3383744 0.3380115 0.4949265
vn 0.9651934 0.0264650 -0.2601947
v 0.3383890 0.3318982 -0.4965734
vn -0.3300922 0.6455982 -0.6886525
v 0.3383450 0.3472245 -0.4900879
vn -0.0757743 -0.7839991 -0.6161198
v 0.3410832 -0.3119590 -0.4900591
vn 0.9798813 -0.1867630 -0.0703727
v 0.3410334 -0.3154250 -0.4826533
vn -0.1066318 -0.4674114 -0.8775855
v 0.3302550 -0.3050065 -0.4954239
vn -0.0865607 -0.9406555 0.3281382
v 0.3416323 -0.3146103 0.4844341
vn -0.1257403 -0.8174518 0.5621049
v 0.3418012 -0.3120134 0.4900894
vn -0.9949942 -0.0745268 0.0665755
v 0.3292729 -0.3052256 0.4926429
vn -0.1397275 -0.7060339 0.6942567
v 0.3294394 -0.3113766 0.4882511
vn -0.0865607 -0.9406555 0.3281382
v 0.3292558 -0.3139727 0.4825958
vn 0.6083628 -0.7936592 0.0000000
v 0.3398955 -0.3180944 0.4283957
vn 0.4292111 -0.9030358 0.0174408
v 0.3398955 -0.3180944 0.4283957
vn 0.9709374 -0.2393338 0.0000026
v 0.3413105 -0.3158121 0.3617365
vn -0.1291261 -0.9911950 0.0293059
v 0.3289469 -0.3151738 0.4283952
vn -0.9999642 -0.0084020 0.0010748
v 0.3289469 -0.3151738 0.4283952
vn 0.9999951 0.0031151 0.0003712
v 0.3289469 -0.3151738 0.4283952
vn -0.1078924 -0.9892678 0.0985316
v 0.3290804 -0.3152010 0.4786036
vn -0.3071429 0.9516634 -0.0000560
v 0.3289249 -0.3001679 0.3617426
vn -0.9891569 -0.1468624 -0.0003677
v 0.3289249 -0.3001679 0.3617426
vn 0.0001204 0.0003562 -0.9999999
v 0.3289249 -0.3001679 0.3617426
vn -0.9999863 -0.0052021 0.0006287
v 0.3289001 -0.3001664 0.4284016
vn -0.3071429 0.9516634 -0.0000560
v 0.3289001 -0.3001664 0.4284016
vn -0.0000855 -0.0004299 0.9999999
v 0.3289001 -0.3001664 0.4284016
vn -0.2837425 -0.9589005 -0.0000052
v 0.3331801 -0.3232418 0.4283943
vn 0.6083628 -0.7936592 0.0000000
v 0.3331801 -0.3232418 0.4283943
vn -0.2837425 -0.9589005 -0.0000052
v 0.3045624 -0.3147741 0.4283957
vn 0.0000245 -0.0000537 1.0000000
v 0.3045624 -0.3147741 0.4283957
vn 0.9640689 0.0239630 -0.2645696
v 0.3384214 0.3223352 -0.4982350
vn -0.9947269 -0.1025412 -0.0019236
v 0.3292204 -0.3001841 -0.4292205
vn -0.3034750 0.9528394 -0.0000776
v 0.3292204 -0.3001841 -0.4292205
vn -0.0000451 -0.0001993 1.0000000
v 0.3338475 -0.3232418 -0.3625692
vn 0.6481575 -0.7615064 0.0000000
v 0.3338475 -0.3232418 -0.3625692
vn -0.0000451 -0.0001992 1.0000000
v 0.3045648 -0.3147741 -0.3625677
vn -0.2777806 -0.9606445 0.0000051
v 0.3045648 -0.3147741 -0.3625677
vn -0.1742889 0.9772853 -0.1205691
v 0.3385886 0.3578804 -0.4634511
vn 0.9600652 0.2771844 0.0379966
v 0.3385886 0.3580130 0.4626200
vn -0.1667132 0.3557220 0.9196025
v 0.3301346 0.3354750 0.4949130
vn 0.9568262 0.2900660 -0.0185840
v 0.3379136 0.3543649 -0.4803475
vn -0.3024971 0.5161030 -0.8013321
v 0.3305202 0.3446679 -0.4888054
vn -0.0698875 -0.9839898 -0.1639512
v 0.3319145 -0.3148178 -0.4813586
vn -0.0667627 -0.8666402 -0.4944468
v 0.3314840 -0.3122031 -0.4893784
vn 0.9737939 -0.0752367 0.2146276
v 0.3416087 -0.3058633 0.4944815
vn -0.0098057 -0.9999520 0.0000044
v -0.2710443 -0.3523316 -0.4297253
vn -0.0098057 -0.9999520 0.0000049
v -0.2615814 -0.3524246 0.4510804
vn 0.0005086 0.9996696 -0.0257012
v -0.3395467 -0.2999430 -0.4883822
vn -0.0098056 -0.9999520 -0.0000171
v 0.2818729 -0.3577536 -0.4625641
vn -0.9043506 -0.4132983 -0.1064639
v -0.3482024 -0.3145822 -0.4648729
vn -0.5648198 -0.0960734 -0.8196027
v -0.3369687 -0.3152676 -0.4892073
vn -0.1187441 -0.6295761 -0.7678111
v -0.3013674 -0.3187079 -0.5000000
vn -0.6913244 -0.7174056 0.0860221
v -0.3490732 -0.3146186 0.4635323
vn -0.7644715 -0.0230041 0.6442471
v -0.3393506 -0.3153033 0.4880473
vn -0.1483108 -0.3830167 0.9117577
v -0.3125653 -0.3163810 0.5000000
vn 0.9402741 -0.2741743 -0.2017750
v 0.3290547 -0.3282931 -0.4715638
vn 0.6687461 -0.4272207 -0.6084909
v 0.3207379 -0.3282931 -0.4916419
vn 0.2782019 -0.3961313 -0.8750336
v 0.3006598 -0.3282931 -0.4999588
vn 0.1492790 -0.5767745 0.8031482
v 0.3006598 -0.3282931 0.4995019
vn 0.6290379 -0.4182351 0.6552792
v 0.3207382 -0.3282931 0.4911851
vn 0.9512117 -0.1319580 0.2788969
v 0.3290550 -0.3282931 0.4711069
vn -0.0005144 0.9999994 -0.0010176
v -0.3395467 -0.2997151 0.4881099
vn -0.0098056 -0.9999520 -0.0000171
v -0.2387372 -0.3526485 -0.4625641
vn -0.0740820 -0.8124610 0.5782897
v -0.2424257 -0.3526121 0.4606985
vn 0.1025403 -0.8035873 0.5862875
v 0.2818729 -0.3577536 0.4606985
vn 0.3574769 -0.8208099 0.4455124
v 0.3005736 -0.3579372 0.4528252
vn -0.0005223 0.9999993 -0.0010189
v 0.3005345 -0.3003809 -0.4985138
vn -0.0005223 0.9999993 -0.0010136
v -0.3497061 -0.2997450 0.4636488
vn -0.7859635 -0.4961356 -0.3689320
v -0.3449051 -0.3151961 -0.4780955
vn -0.2927762 -0.4491487 -0.8441253
v -0.3195187 -0.3170729 -0.4958816
vn -0.9066098 -0.2901298 0.3064042
v -0.3462566 -0.3150265 0.4766083
vn -0.4270184 -0.2387445 0.8721562
v -0.3268439 -0.3158020 0.4961166
vn 0.0001962 0.9997964 -0.0201763
v -0.3276332 -0.3007051 -0.4947254
vn -0.0005225 0.9999993 -0.0010108
v -0.3466709 -0.2997304 0.4766978
vn 0.9719412 0.2352242 -0.0001193
v 0.2930940 -0.3131656 0.3647900
vn -0.0000056 -0.0000315 -1.0000000
v 0.3265629 -0.2994306 0.4253474
vn 0.9961826 0.0872942 -0.0000436
v 0.3288549 -0.3260191 0.3647900
vn -0.0005256 0.9999993 -0.0010136
v 0.3265632 -0.3002306 -0.3639014
vn 0.9719412 0.2352242 -0.0001193
v 0.2897820 -0.2995113 0.3647894
vn 0.9961826 0.0872942 -0.0000436
v 0.3290547 -0.3282931 -0.3649327
vn 0.3957196 0.9183570 -0.0051503
v 0.3290547 -0.3282931 -0.4274880
vn -0.0005223 0.9999993 -0.0010189
v -0.3150190 -0.3007024 -0.4985134
vn -0.3441693 0.0315397 0.9383777
v -0.3281692 -0.2997019 0.4952689
vn -0.0098057 -0.9999520 -0.0000013
v 0.3005733 -0.3579372 -0.4546906
vn 0.9874698 0.0905351 0.1292548
v 0.3265629 -0.2993854 0.4699232
vn 0.7931638 0.0939889 0.6017119
v 0.3182461 -0.2993695 0.4899470
vn -0.9896856 -0.0900500 -0.1114159
v -0.3497061 -0.3006856 -0.4639201
vn -0.2942463 -0.9094799 -0.2937101
v -0.2615817 -0.3524246 -0.4529459
vn -0.4095503 -0.9104444 0.0579627
v -0.2710440 -0.3523316 0.4278601
vn 0.7378622 -0.6626413 0.1283198
v 0.3083196 -0.3580130 0.4338164
vn 0.7410791 -0.6592177 -0.1274128
v 0.3083196 -0.3580130 -0.4356822
vn 0.6128250 0.0827151 -0.7858777
v 0.3182464 -0.3003632 -0.4902195
vn 0.9609562 0.0985586 -0.2585528
v 0.3265632 -0.3003384 -0.4701958
vn 0.1948311 0.0707425 0.9782824
v 0.2981679 -0.2993717 0.4982415
vn -0.9344383 -0.1025705 -0.3410344
v -0.3469459 -0.3002144 -0.4772072
vn -0.1210231 0.0581125 0.9909472
v -0.3150193 -0.2996919 0.4982421
vn 0.9960577 0.0887080 -0.0000451
v 0.3265632 -0.3002935 -0.4259901
vn -0.0000056 -0.0000315 -1.0000000
v 0.3288549 -0.3260191 0.4253481
vn 0.9682007 0.2488570 -0.0256446
v 0.2914394 -0.3002511 -0.3658066
vn 0.3957196 0.9183570 -0.0051503
v 0.2947508 -0.3131656 -0.3658072
vn -0.0005256 0.9999993 -0.0010136
v 0.3265629 -0.2994921 0.3647894
vn 0.9719412 0.2352242 -0.0001193
v 0.2897820 -0.2994499 0.4253474
vn 0.3957196 0.9183570 -0.0051503
v 0.2931423 -0.3131656 -0.4268383
vn 0.9682007 0.2488570 -0.0256446
v 0.2898310 -0.3003137 -0.4268380
vn 0.9719412 0.2352242 -0.0001193
v 0.2930940 -0.3131656 0.4253481
vn -0.0098058 -0.9999520 0.0000278
v 0.2818729 -0.3577536 0.4606985
vn -0.0098058 -0.9999520 0.0000278
v -0.2424257 -0.3526121 0.4606985
vn -0.0005225 0.9999993 -0.0010117
v 0.3265629 -0.2993854 0.4699232
vn -0.0005226 0.9999993 -0.0010154
v 0.3182461 -0.2993695 0.4899470
vn -0.0098058 -0.9999520 0.0000164
v 0.3005736 -0.3579372 0.4528252
vn -0.0098057 -0.9999520 -0.0000044
v 0.3083196 -0.3580130 0.4338164
vn -0.0098057 -0.9999520 0.0000022
v 0.3083196 -0.3580130 -0.4356822
vn -0.9041587 -0.0250312 0.4264629
v -0.3466709 -0.2997304 0.4766978
vn -0.9924697 -0.0550332 0.1094324
v -0.3497061 -0.2997450 0.4636488
vn 0.9963049 0.0858870 -0.0000884
v 0.3265629 -0.2994306 0.4253474
vn -0.0005233 0.9999993 -0.0010146
v 0.3265629 -0.2994306 0.4253474
vn -0.3584496 -0.0831278 -0.9298407
v -0.3276332 -0.3007051 -0.4947254
vn -0.7060142 -0.0921509 -0.7021769
v -0.3395467 -0.2999430 -0.4883822
vn -0.6573865 -0.0099855 0.7534875
v -0.3395467 -0.2997151 0.4881099
vn 0.0000056 0.0000316 1.0000000
v 0.2930940 -0.3131656 0.3647900
vn 0.3382434 0.9410587 0.0000000
v 0.2930940 -0.3131656 0.3647900
vn 0.0000056 0.0000316 1.0000000
v 0.2897820 -0.2995113 0.3647894
vn -0.0005230 0.9999993 -0.0010137
v 0.2897820 -0.2995113 0.3647894
vn 0.9961826 0.0872942 -0.0000436
v 0.3265632 -0.3002306 -0.3639014
vn 0.0468885 0.0317822 -0.9983944
v 0.3265632 -0.3002306 -0.3639014
vn 0.9961826 0.0872942 -0.0000436
v 0.3265629 -0.2994921 0.3647894
vn 0.0000056 0.0000316 1.0000000
v 0.3265629 -0.2994921 0.3647894
vn -0.0106627 -0.0381591 0.9992148
v 0.2898310 -0.3003137 -0.4268380
vn -0.0004573 0.9999816 0.0060391
v 0.2898310 -0.3003137 -0.4268380
vn -0.0106627 -0.0381591 0.9992148
v 0.3265632 -0.3002935 -0.4259901
vn -0.0005256 0.9999993 -0.0010161
v 0.3265632 -0.3002935 -0.4259901
vn -0.0005234 0.9999993 -0.0010136
v 0.2914394 -0.3002511 -0.3658066
vn 0.0468885 0.0317822 -0.9983944
v 0.2914394 -0.3002511 -0.3658066
vn 0.5001314 -0.7881421 -0.3587488
v 0.3005733 -0.3579372 -0.4546906
vn 0.1054755 -0.7978240 -0.5935923
v 0.2818729 -0.3577536 -0.4625641
vn -0.1331280 -0.8409197 -0.5245293
v -0.2387372 -0.3526485 -0.4625641
vn -0.0001631 0.9999439 -0.0105977
v 0.3182464 -0.3003632 -0.4902195
vn 0.0002108 0.9998698 -0.0161337
v 0.3265632 -0.3003384 -0.4701958
vn -0.0005225 0.9999993 -0.0010262
v 0.2981679 -0.2993717 0.4982415
vn -0.0005225 0.9999993 -0.0010262
v -0.3150193 -0.2996919 0.4982421
vn -0.0005225 0.9999993 -0.0010208
v -0.3281692 -0.2997019 0.4952689
vn 0.9682007 0.2488570 -0.0256446
v 0.2947508 -0.3131656 -0.3658072
vn 0.0468885 0.0317822 -0.9983944
v 0.2947508 -0.3131656 -0.3658072
vn 0.9682007 0.2488570 -0.0256446
v 0.2931423 -0.3131656 -0.4268383
vn -0.0106627 -0.0381591 0.9992148
v 0.2931423 -0.3131656 -0.4268383
vn -0.2386543 -0.0763711 -0.9680969
v -0.3150190 -0.3007024 -0.4985134
vn -0.2941000 -0.9130230 0.2826559
v -0.2615814 -0.3524246 0.4510804
vn -0.0005164 0.9999998 -0.0003636
v -0.3497061 -0.3006856 -0.4639201
vn -0.0098056 -0.9999520 -0.0000092
v -0.2615817 -0.3524246 -0.4529459
vn -0.4115437 -0.9095047 -0.0585933
v -0.2710443 -0.3523316 -0.4297253
vn -0.0098057 -0.9999520 -0.0000022
v -0.2710440 -0.3523316 0.4278601
vn -0.0004284 0.9999661 0.0082219
v -0.3469459 -0.3002144 -0.4772072
vn 0.3138376 0.0662894 -0.9471598
v 0.3005345 -0.3003809 -0.4985138
vn 0.9973365 0.0729372 -0.0003665
v 0.3288549 -0.3260191 0.4253481
vn 0.3382434 0.9410587 0.0000000
v 0.3288549 -0.3260191 0.4253481
vn 0.3382434 0.9410587 0.0000000
v 0.3288549 -0.3260191 0.3647900
vn 0.0000056 0.0000316 1.0000000
v 0.3288549 -0.3260191 0.3647900
vn 0.8314942 -0.5555328 0.0008728
v 0.3288549 -0.3260191 0.3647900
vn -0.0005223 0.9999993 -0.0010138
v 0.2897820 -0.2994499 0.4253474
vn -0.0000056 -0.0000315 -1.0000000
v 0.2897820 -0.2994499 0.4253474
vn 0.3382434 0.9410587 0.0000000
v 0.2930940 -0.3131656 0.4253481
vn -0.0000056 -0.0000315 -1.0000000
v 0.2930940 -0.3131656 0.4253481
vn 0.0468885 0.0317822 -0.9983944
v 0.3290547 -0.3282931 -0.3649327
vn 0.8311109 -0.5561061 0.0008836
v 0.3290547 -0.3282931 -0.3649327
vn 0.3957196 0.9183570 -0.0051503
v 0.3290547 -0.3282931 -0.3649327
vn 0.9980130 0.0630080 -0.0000437
v 0.3290547 -0.3282931 -0.4274880
vn -0.0106627 -0.0381591 0.9992148
v 0.3290547 -0.3282931 -0.4274880
# 300 vertices, 0 vertices normals


usemtl material_0
vt 0.0000000 0.0000000
vt 0.0000000 0.0000000
f 180/1/180 243/1/243 239/1/239 240/2/240
f 251/1/251 250/1/250 203/1/203 184/2/184
f 186/1/186 204/1/204 246/1/246 247/2/247
f 267/1/267 268/1/268 191/1/191 190/2/190
vt 0.0000000 0.0000000
f 204/1/204 187/1/187 252/1/252 246/3/246
f 187/1/187 280/1/280 205/1/205
f 280/1/280 187/1/187 204/1/204
f 243/1/243 180/1/180 284/1/284 244/3/244
f 286/1/286 191/1/191 185/1/185
f 271/1/271 285/1/285 281/1/281 262/2/262
f 242/1/242 274/1/274 273/1/273 272/2/272
f 188/1/188 197/1/197 198/1/198 192/2/192
f 224/1/224 267/1/267 190/1/190 189/2/189
f 187/1/187 205/1/205 216/1/216 252/2/252
f 198/1/198 199/1/199 193/1/193 192/2/192
f 244/1/244 284/1/284 179/1/179 245/2/245
f 197/1/197 188/1/188 205/1/205 280/2/280
f 248/1/248 218/1/218 194/1/194 287/2/287
f 221/1/221 203/1/203 185/1/185 269/2/269
f 220/1/220 228/1/228 202/1/202 183/2/183
f 199/1/199 223/1/223 194/1/194 193/3/193
f 279/1/279 286/1/286 185/1/185
f 183/1/183 283/1/283 222/1/222 186/2/186
f 250/1/250 279/1/279 185/1/185 203/2/203
f 205/1/205 188/1/188 229/1/229 216/2/216
f 190/1/190 191/1/191 286/1/286 225/2/225
f 282/1/282 217/1/217 245/1/245 179/2/179
f 274/1/274 242/1/242 241/1/241 207/2/207
f 228/1/228 251/1/251 184/1/184 202/2/202
f 220/1/220 183/1/183 186/1/186 247/2/247
f 222/1/222 280/1/280 204/1/204 186/3/186
f 184/1/184 221/1/221 202/1/202
f 221/1/221 184/1/184 203/1/203
f 206/1/206 270/1/270 200/1/200 215/3/215
f 181/1/181 285/1/285 271/1/271
f 207/1/207 195/1/195 274/1/274
f 181/1/181 271/1/271 270/1/270 206/2/206
f 253/1/253 290/1/290 260/1/260 255/2/255
f 217/1/217 282/1/282 196/1/196 182/2/182
f 183/1/183 202/1/202 221/1/221 283/2/283
f 291/1/291 223/1/223 224/1/224 297/3/297
f 224/1/224 189/1/189 299/1/299
f 281/1/281 201/1/201 292/1/292
f 278/1/278 300/1/300 263/1/263 261/3/261
f 241/1/241 249/1/249 292/1/292
f 256/1/256 281/1/281 292/1/292
f 281/1/281 265/1/265 262/1/262
f 229/1/229 188/1/188 192/1/192 227/2/227
f 258/1/258 296/1/296 276/1/276 266/2/266
f 293/1/293 209/1/209 231/1/231 295/2/295
f 254/1/254 294/1/294 288/1/288 289/2/289
f 235/1/235 238/1/238 208/1/208 212/2/212
f 232/1/232 275/1/275 277/1/277 237/2/237
f 298/1/298 214/1/214 236/1/236 233/3/233
f 262/1/262 264/1/264 271/1/271
f 223/1/223 291/1/291 287/1/287
f 281/1/281 256/1/256 265/1/265
f 194/1/194 223/1/223 287/1/287
f 189/1/189 190/1/190 225/1/225 226/2/226
f 226/1/226 230/1/230 299/1/299 189/3/189
f 299/1/299 297/1/297 224/1/224
f 192/1/192 193/1/193 219/1/219 227/2/227
f 193/1/193 194/1/194 218/1/218 219/2/219
f 257/1/257 259/1/259 210/1/210 213/2/213
f 211/1/211 265/1/265 256/1/256 234/2/234
f 207/1/207 241/1/241 292/1/292 201/2/201
f 191/1/191 268/1/268 269/1/269 185/2/185
f 151/1/151 44/1/44 46/1/46 157/2/157
f 89/1/89 88/1/88 90/1/90 91/2/91
f 3/1/3 18/1/18 21/1/21 4/3/4
f 5/1/5 4/1/4 12/1/12
f 5/1/5 1/1/1 4/1/4
f 1/1/1 3/1/3 4/1/4
f 19/1/19 26/1/26 21/1/21
f 126/1/126 165/1/165 113/1/113
f 164/1/164 19/1/19 17/1/17
f 20/1/20 17/1/17 18/1/18
f 18/1/18 17/1/17 21/1/21
f 17/1/17 19/1/19 21/1/21
f 135/1/135 134/1/134 107/1/107 108/2/108
f 145/1/145 146/1/146 142/1/142 143/2/143
f 115/1/115 141/1/141 54/1/54 114/2/114
f 127/1/127 100/1/100 94/1/94 96/2/96
f 162/1/162 120/1/120 118/1/118 160/2/160
f 51/1/51 121/1/121 123/1/123 87/2/87
f 104/1/104 102/1/102 84/1/84 86/2/86
f 125/1/125 163/1/163 14/1/14 13/3/13
f 47/1/47 50/1/50 152/1/152
vt 0.0000000 0.0000000
f 169/1/169 167/1/167 103/1/103 133/4/133
vt 0.0002193 0.0000000
f 82/1/82 81/1/81 144/1/144 46/2/46 44/5/44
f 154/1/154 122/1/122 124/1/124 158/2/158
f 119/1/119 85/1/85 147/1/147 161/3/161
f 46/1/46 8/1/8 157/1/157
f 42/1/42 153/1/153 150/1/150 148/3/148
f 1/1/1 5/1/5 7/1/7
vt 0.0001898 0.0000000
f 178/1/178 79/1/79 83/1/83 1/4/1 11/6/11
vt 0.0002193 0.0000000
f 31/1/31 136/1/136 7/1/7 5/2/5 12/7/12
f 99/1/99 101/1/101 168/1/168 97/2/97
f 134/1/134 10/1/10 109/1/109 107/3/107
f 4/1/4 21/1/21 24/1/24
f 54/1/54 15/1/15 59/1/59 114/3/114
f 27/1/27 56/1/56 28/1/28
f 131/1/131 98/1/98 63/1/63 170/4/170
vt 0.0001898 0.0000000
f 137/1/137 35/1/35 26/1/26 19/4/19 164/8/164
vt 0.0002194 0.0000000
f 126/1/126 36/1/36 78/1/78 77/2/77 22/9/22
f 165/1/165 126/1/126 22/1/22 95/2/95
f 48/1/48 52/1/52 53/1/53 49/2/49
f 90/1/90 88/1/88 69/1/69 173/2/173
f 57/1/57 166/1/166 129/1/129 132/4/132
vt 0.0001899 0.0000000
f 111/1/111 110/1/110 73/1/73 112/4/112 113/10/113
vt 0.0002194 0.0000000
f 140/1/140 74/1/74 20/1/20 18/2/18 55/11/55
f 28/1/28 130/1/130 128/1/128 27/3/27
f 18/1/18 25/1/25 55/1/55
vt 0.0002194 0.0000000
f 74/1/74 76/1/76 60/1/60 17/3/17 20/12/20
f 60/1/60 164/1/164 17/1/17
vt 0.0002194 0.0000000
f 79/1/79 80/1/80 117/1/117 3/2/3 83/13/83
f 155/1/155 8/1/8 113/1/113 106/3/106
f 3/1/3 149/1/149 16/1/16
f 92/1/92 40/1/40 84/1/84 102/4/102
vt 0.0002194 0.0000000
f 31/1/31 12/1/12 4/1/4 172/2/172 67/14/67
f 102/1/102 100/1/100 93/1/93 92/2/92
f 23/1/23 109/1/109 10/1/10 171/3/171
f 3/1/3 116/1/116 149/1/149
f 3/1/3 117/1/117 116/1/116
f 84/1/84 40/1/40 41/1/41 148/2/148
f 153/1/153 42/1/42 142/1/142 146/3/146
f 18/1/18 16/1/16 25/1/25
vt 0.0002194 0.0000000
f 26/1/26 35/1/35 174/1/174 24/3/24 21/15/21
f 1/1/1 6/1/6 3/1/3
f 155/1/155 157/1/157 8/1/8
f 113/1/113 165/1/165 106/1/106
f 58/1/58 61/1/61 65/1/65 64/2/64
f 15/1/15 33/1/33 71/1/71 59/3/59
f 167/1/167 45/1/45 103/1/103
f 39/1/39 13/1/13 14/1/14
f 87/1/87 2/1/2 51/1/51
f 13/1/13 159/1/159 125/1/125
f 148/1/148 41/1/41 42/1/42
f 156/1/156 87/1/87 123/1/123
f 11/1/11 1/1/1 7/1/7
f 172/1/172 4/1/4 24/1/24
f 128/1/128 62/1/62 27/1/27
f 127/1/127 93/1/93 100/1/100
f 18/1/18 3/1/3 16/1/16
f 105/1/105 133/1/133 103/1/103
f 9/1/9 155/1/155 106/1/106 43/3/43
f 67/1/67 68/1/68 31/1/31
f 68/1/68 136/1/136 31/1/31
f 69/1/69 135/1/135 108/1/108 173/4/173
vt 0.0002195 0.0000000
f 70/1/70 30/1/30 29/1/29 66/3/66 8/16/8
f 137/1/137 72/1/72 35/1/35
f 72/1/72 174/1/174 35/1/35
f 34/1/34 138/1/138 175/1/175 32/2/32
f 138/1/138 71/1/71 33/1/33 175/2/175
f 34/1/34 32/1/32 23/1/23 171/2/171
f 96/1/96 176/1/176 75/1/75 127/2/127
f 38/1/38 89/1/89 91/1/91 37/2/37
f 37/1/37 145/1/145 143/1/143 38/2/38
f 176/1/176 177/1/177 139/1/139 75/2/75
f 177/1/177 141/1/141 115/1/115 139/2/139
f 113/1/113 8/1/8 66/1/66 111/1/111
# 161 faces, 16 coords texture

# End of File
